<svg width="260" height="260" viewBox="0 0 260 260" fill="none" xmlns="http://www.w3.org/2000/svg">
<path d="M72.7709 103.278V105.253C68.865 103.394 64.4996 102.349 59.9044 102.349C43.5916 102.349 30.2656 115.826 30.2656 132.324C30.2656 148.938 43.5916 162.299 59.9044 162.299C64.3847 162.299 68.7501 161.253 72.5411 159.51C71.3923 163.809 68.2906 169.502 61.3979 169.502C51.9778 169.502 46.2338 162.183 46.2338 162.183L32.1037 169.735C32.1037 169.735 39.2262 186 61.3979 186C75.528 186 90.5772 174.614 91.0367 156.838V103.278H72.7709ZM60.5937 145.22C53.701 145.22 49.1058 140.108 49.1058 132.44C49.1058 124.772 53.701 119.66 60.5937 119.66C67.4865 119.66 72.0816 124.772 72.0816 132.44C72.0816 140.108 67.4865 145.22 60.5937 145.22Z" fill="#18A0FB"/>
<path d="M142.741 102.349C133.551 102.349 126.773 105.486 122.522 110.481C118.502 105.486 112.413 102.349 105.061 102.349C100.006 102.349 94.9514 104.44 91.0455 108.042V103.278H72.8946V161.369H91.0455V130.465C91.0455 123.726 94.8365 119.195 100.58 119.195C106.324 119.195 110.23 123.61 110.23 130.349V161.369H128.726V130.465C128.726 123.726 132.517 119.195 138.261 119.195C144.005 119.195 147.796 123.61 147.796 130.349V161.369H166.406V129.768C166.406 114.199 157.101 102.349 142.741 102.349Z" fill="#18A0FB"/>
<path d="M194.59 141.037C194.59 143.593 189.861 146.188 185.591 146.188C182.681 146.188 182.757 142.896 182.757 139.411V119.66H194.59V103.278H182.757V83.4109H164.606V103.278H148.217L158.748 119.66H164.606V145.336C164.606 157.652 172.074 162.299 182.298 162.299C192.522 162.299 198.955 155.909 198.955 155.909L194.59 141.037Z" fill="#18A0FB"/>
<path d="M226.22 102.349C221.28 102.349 216.226 104.44 212.32 108.042V103.278H194.169V161.369H212.32V130.465C212.32 123.726 216.111 119.195 221.855 119.195C227.599 119.195 231.39 123.61 231.39 130.349V161.369H250V129.768C250 114.199 240.695 102.349 226.22 102.349Z" fill="#18A0FB"/>
<path d="M55.3562 102.929H35.0437V91.8921C35.0437 89.917 36.0776 89.4523 37.3413 89.4523C38.49 89.4523 40.0984 90.0332 40.0984 90.0332L43.6596 76.2075C43.6596 76.2075 38.1454 74 29.989 74C21.8326 74 16.7779 81.668 16.7779 86.6639V102.929H10V116.639H16.7779V161.369H35.0437V116.639H43.7745L55.3562 102.929Z" fill="#18A0FB"/>
</svg>
